<svg width="1920" height="965" viewBox="0 0 1920 965" fill="none" xmlns="http://www.w3.org/2000/svg">
<path d="M1290.49 166.791C1763.99 81.7905 1953.83 311.963 2079 234.791C2091.5 289.826 2103.05 300.621 2107.64 302.137C2110.24 302.996 2110.61 300.873 2107.64 302.137C2102.73 304.231 2088.66 315.624 2060.48 365.29C1966.48 530.934 1742.5 674.418 1290.49 740.29C838.473 806.163 484.999 427.29 -171.5 777.29C-801.132 1112.97 -199.122 554.626 -171.728 577.948L-192.5 4.79052C-163.334 -47.6528 -282.994 346.316 338.5 414.29C959.994 482.264 816.986 251.791 1290.49 166.791Z" fill="url(#paint0_linear)"/>
<g filter="url(#filter0_d)">
<mask id="mask0" mask-type="alpha" maskUnits="userSpaceOnUse" x="-458" y="0" width="2568" height="885">
<path d="M1290.49 166.791C1763.99 81.7905 1953.83 311.963 2079 234.791C2091.5 289.826 2103.05 300.621 2107.64 302.137C2110.24 302.996 2110.61 300.873 2107.64 302.137C2102.73 304.231 2088.66 315.624 2060.48 365.29C1966.48 530.934 1742.5 674.418 1290.49 740.29C838.473 806.163 484.999 427.29 -171.5 777.29C-801.132 1112.97 -199.122 554.626 -171.728 577.948L-192.5 4.79052C-163.334 -47.6528 -282.994 346.316 338.5 414.29C959.994 482.264 816.986 251.791 1290.49 166.791Z" fill="url(#paint1_linear)"/>
</mask>
<g mask="url(#mask0)">
<path d="M329.885 536.898C37.7463 570.272 -143.767 638.526 -198.007 668.481C-235.809 767.555 -311.705 968.866 -312.873 981.525C-314.333 997.348 -291.854 1099.8 -251.814 1182.3C-211.775 1264.8 -59.6723 1205.58 2.0907 1215.14C63.8537 1224.71 1715.62 926.446 1857.22 906.411C1998.81 886.375 1967.72 513.76 1856.03 600.481C1744.33 687.201 1311.38 665.677 1010.09 609.785C708.791 553.894 695.059 495.179 329.885 536.898Z" fill="url(#paint2_linear)"/>
</g>
</g>
<defs>
<filter id="filter0_d" x="-362.94" y="502.785" width="2364.93" height="462.205" filterUnits="userSpaceOnUse" color-interpolation-filters="sRGB">
<feFlood flood-opacity="0" result="BackgroundImageFix"/>
<feColorMatrix in="SourceAlpha" type="matrix" values="0 0 0 0 0 0 0 0 0 0 0 0 0 0 0 0 0 0 127 0"/>
<feOffset dy="30"/>
<feGaussianBlur stdDeviation="25"/>
<feColorMatrix type="matrix" values="0 0 0 0 1 0 0 0 0 0.235294 0 0 0 0 0.396078 0 0 0 0.2 0"/>
<feBlend mode="normal" in2="BackgroundImageFix" result="effect1_dropShadow"/>
<feBlend mode="normal" in="SourceGraphic" in2="effect1_dropShadow" result="shape"/>
</filter>
<linearGradient id="paint0_linear" x1="1966.98" y1="215.846" x2="-34.8393" y2="414.47" gradientUnits="userSpaceOnUse">
<stop stop-color="#FF3A64"/>
<stop offset="1" stop-color="#FF6784"/>
</linearGradient>
<linearGradient id="paint1_linear" x1="1966.98" y1="215.846" x2="-34.8393" y2="414.47" gradientUnits="userSpaceOnUse">
<stop stop-color="#FF3A64"/>
<stop offset="1" stop-color="#FF6784"/>
</linearGradient>
<linearGradient id="paint2_linear" x1="982" y1="588.291" x2="396.359" y2="687.806" gradientUnits="userSpaceOnUse">
<stop stop-color="#FF3A64"/>
<stop offset="1" stop-color="#FF6784"/>
</linearGradient>
</defs>
</svg>
