<svg width="1920" height="1287" viewBox="0 0 1920 1287" fill="none" xmlns="http://www.w3.org/2000/svg">
<g filter="url(#filter0_i)">
<path d="M496 414.021C131.69 327.844 -107.028 590.743 -188.146 646.91C-140.627 576.822 -570.219 624.347 -389.262 895.578C-444.461 991.109 -461.741 882.467 90.7281 992.88C643.197 1103.29 1175.51 908.06 1584.94 921.021C1994.37 933.983 2001.57 1242.18 2084.61 1078.96C2167.65 915.74 2041.48 26.037 1976.61 6.51598C1786.74 -50.6231 1834.55 282.272 1636.78 448.646C1439 615.021 942 519.521 496 414.021Z" fill="url(#paint0_linear)"/>
</g>
<g filter="url(#filter1_d)">
<mask id="mask0" mask-type="alpha" maskUnits="userSpaceOnUse" x="-435" y="0" width="2548" height="1207">
<path d="M451.958 448.646C82.0133 390.254 -107.473 590.785 -188.627 646.968C-141.087 576.859 -570.865 624.398 -389.83 895.711C-445.053 991.27 -20.5571 1310.6 451.958 1172.31C924.474 1034.01 1175.62 908.196 1585.23 921.161C1994.84 934.127 2002.04 1242.41 2085.11 1079.15C2168.19 915.879 2041.96 25.9097 1977.07 6.38289C1787.12 -50.7733 1790.76 320.595 1632.77 513.953C1474.78 707.311 914.39 521.636 451.958 448.646Z" fill="url(#paint1_linear)"/>
</mask>
<g mask="url(#mask0)">
<path d="M11.5089 553.409C618.48 302.169 1238.8 799.962 1495.22 1056.23L-228.692 1304.97C-416.29 1175.16 -595.462 804.649 11.5089 553.409Z" fill="url(#paint2_linear)"/>
</g>
</g>
<g filter="url(#filter2_d)">
<circle cx="812" cy="519" r="84" fill="url(#paint3_linear)"/>
</g>
<defs>
<filter id="filter0_i" x="-434" y="0" width="2546" height="1156.52" filterUnits="userSpaceOnUse" color-interpolation-filters="sRGB">
<feFlood flood-opacity="0" result="BackgroundImageFix"/>
<feBlend mode="normal" in="SourceGraphic" in2="BackgroundImageFix" result="shape"/>
<feColorMatrix in="SourceAlpha" type="matrix" values="0 0 0 0 0 0 0 0 0 0 0 0 0 0 0 0 0 0 127 0" result="hardAlpha"/>
<feOffset dy="30"/>
<feGaussianBlur stdDeviation="15"/>
<feComposite in2="hardAlpha" operator="arithmetic" k2="-1" k3="1"/>
<feColorMatrix type="matrix" values="0 0 0 0 0.254902 0 0 0 0 0.494118 0 0 0 0 0.972549 0 0 0 0.5 0"/>
<feBlend mode="normal" in2="shape" result="effect1_innerShadow"/>
</filter>
<filter id="filter1_d" x="-457" y="464.521" width="2002.22" height="822" filterUnits="userSpaceOnUse" color-interpolation-filters="sRGB">
<feFlood flood-opacity="0" result="BackgroundImageFix"/>
<feColorMatrix in="SourceAlpha" type="matrix" values="0 0 0 0 0 0 0 0 0 0 0 0 0 0 0 0 0 0 127 0"/>
<feOffset dy="30"/>
<feGaussianBlur stdDeviation="25"/>
<feColorMatrix type="matrix" values="0 0 0 0 0.137255 0 0 0 0 0.529412 0 0 0 0 0.972549 0 0 0 0.2 0"/>
<feBlend mode="normal" in2="BackgroundImageFix" result="effect1_dropShadow"/>
<feBlend mode="normal" in="SourceGraphic" in2="effect1_dropShadow" result="shape"/>
</filter>
<filter id="filter2_d" x="703" y="420" width="228" height="228" filterUnits="userSpaceOnUse" color-interpolation-filters="sRGB">
<feFlood flood-opacity="0" result="BackgroundImageFix"/>
<feColorMatrix in="SourceAlpha" type="matrix" values="0 0 0 0 0 0 0 0 0 0 0 0 0 0 0 0 0 0 127 0"/>
<feOffset dx="5" dy="15"/>
<feGaussianBlur stdDeviation="15"/>
<feColorMatrix type="matrix" values="0 0 0 0 1 0 0 0 0 0.678431 0 0 0 0 0.376471 0 0 0 0.5 0"/>
<feBlend mode="normal" in2="BackgroundImageFix" result="effect1_dropShadow"/>
<feBlend mode="normal" in="SourceGraphic" in2="effect1_dropShadow" result="shape"/>
</filter>
<linearGradient id="paint0_linear" x1="1908.93" y1="797.645" x2="-55.1991" y2="1048.65" gradientUnits="userSpaceOnUse">
<stop stop-color="#0092F8"/>
<stop offset="1" stop-color="#417EF8"/>
</linearGradient>
<linearGradient id="paint1_linear" x1="1909.36" y1="797.75" x2="-55.6131" y2="1048.89" gradientUnits="userSpaceOnUse">
<stop stop-color="#0092F8"/>
<stop offset="1" stop-color="#417EF8"/>
</linearGradient>
<linearGradient id="paint2_linear" x1="1092.82" y1="722.01" x2="477.681" y2="1325.14" gradientUnits="userSpaceOnUse">
<stop stop-color="#0092F8"/>
<stop offset="1" stop-color="#417EF8"/>
</linearGradient>
<linearGradient id="paint3_linear" x1="812" y1="435" x2="812" y2="603" gradientUnits="userSpaceOnUse">
<stop stop-color="#FFB950"/>
<stop offset="1" stop-color="#FF9550"/>
</linearGradient>
</defs>
</svg>
