<svg width="2571" height="1287" viewBox="0 0 2571 1287" fill="none" xmlns="http://www.w3.org/2000/svg">
<g filter="url(#filter0_i)">
<path d="M953.587 414.021C589.277 327.844 350.559 590.743 269.441 646.91C316.96 576.822 -112.631 624.347 68.3249 895.578C13.126 991.109 -4.15356 882.467 548.315 992.88C1100.78 1103.29 1633.09 908.06 2042.53 921.021C2451.96 933.983 2459.16 1242.18 2542.19 1078.96C2625.23 915.74 2499.06 26.037 2434.2 6.51598C2244.33 -50.6231 2292.14 282.272 2094.36 448.646C1896.59 615.021 1399.59 519.521 953.587 414.021Z" fill="url(#paint0_linear)"/>
</g>
<g filter="url(#filter1_d)">
<mask id="mask0" mask-type="alpha" maskUnits="userSpaceOnUse" x="23" y="0" width="2548" height="1207">
<path d="M909.546 448.646C539.6 390.253 350.114 590.784 268.96 646.968C316.5 576.859 -113.278 624.398 67.7572 895.711C12.5343 991.27 437.03 1310.6 909.546 1172.31C1382.06 1034.01 1633.21 908.196 2042.81 921.161C2452.42 934.127 2459.63 1242.41 2542.7 1079.15C2625.78 915.879 2499.55 25.9096 2434.66 6.38276C2244.7 -50.7734 2248.34 320.595 2090.35 513.953C1932.37 707.311 1371.98 521.636 909.546 448.646Z" fill="url(#paint1_linear)"/>
</mask>
<g mask="url(#mask0)">
<path d="M469.096 553.409C1076.07 302.169 1696.38 799.962 1952.81 1056.23L228.895 1304.97C41.2974 1175.16 -137.875 804.649 469.096 553.409Z" fill="url(#paint2_linear)"/>
</g>
</g>
<defs>
<filter id="filter0_i" x="23.5872" y="0" width="2546" height="1156.52" filterUnits="userSpaceOnUse" color-interpolation-filters="sRGB">
<feFlood flood-opacity="0" result="BackgroundImageFix"/>
<feBlend mode="normal" in="SourceGraphic" in2="BackgroundImageFix" result="shape"/>
<feColorMatrix in="SourceAlpha" type="matrix" values="0 0 0 0 0 0 0 0 0 0 0 0 0 0 0 0 0 0 127 0" result="hardAlpha"/>
<feOffset dy="30"/>
<feGaussianBlur stdDeviation="15"/>
<feComposite in2="hardAlpha" operator="arithmetic" k2="-1" k3="1"/>
<feColorMatrix type="matrix" values="0 0 0 0 0.254902 0 0 0 0 0.494118 0 0 0 0 0.972549 0 0 0 0.5 0"/>
<feBlend mode="normal" in2="shape" result="effect1_innerShadow"/>
</filter>
<filter id="filter1_d" x="0.587158" y="464.521" width="2002.22" height="822" filterUnits="userSpaceOnUse" color-interpolation-filters="sRGB">
<feFlood flood-opacity="0" result="BackgroundImageFix"/>
<feColorMatrix in="SourceAlpha" type="matrix" values="0 0 0 0 0 0 0 0 0 0 0 0 0 0 0 0 0 0 127 0"/>
<feOffset dy="30"/>
<feGaussianBlur stdDeviation="25"/>
<feColorMatrix type="matrix" values="0 0 0 0 0.137255 0 0 0 0 0.529412 0 0 0 0 0.972549 0 0 0 0.2 0"/>
<feBlend mode="normal" in2="BackgroundImageFix" result="effect1_dropShadow"/>
<feBlend mode="normal" in="SourceGraphic" in2="effect1_dropShadow" result="shape"/>
</filter>
<linearGradient id="paint0_linear" x1="2366.52" y1="797.645" x2="402.388" y2="1048.65" gradientUnits="userSpaceOnUse">
<stop stop-color="#0092F8"/>
<stop offset="1" stop-color="#417EF8"/>
</linearGradient>
<linearGradient id="paint1_linear" x1="2366.95" y1="797.75" x2="401.974" y2="1048.89" gradientUnits="userSpaceOnUse">
<stop stop-color="#0092F8"/>
<stop offset="1" stop-color="#417EF8"/>
</linearGradient>
<linearGradient id="paint2_linear" x1="1550.4" y1="722.01" x2="935.268" y2="1325.14" gradientUnits="userSpaceOnUse">
<stop stop-color="#0092F8"/>
<stop offset="1" stop-color="#417EF8"/>
</linearGradient>
</defs>
</svg>
