<svg width="2568" height="965" viewBox="0 0 2568 965" fill="none" xmlns="http://www.w3.org/2000/svg">
<path d="M1748.07 166.791C2221.57 81.7905 2411.42 311.963 2536.59 234.791C2549.09 289.826 2560.64 300.621 2565.23 302.137C2567.83 302.996 2568.19 300.873 2565.23 302.137C2560.31 304.231 2546.25 315.624 2518.07 365.29C2424.07 530.934 2200.08 674.418 1748.07 740.29C1296.06 806.163 942.585 427.29 286.085 777.29C-343.547 1112.97 258.464 554.626 285.858 577.948L265.086 4.79052C294.252 -47.6528 174.591 346.316 796.086 414.29C1417.58 482.264 1274.57 251.791 1748.07 166.791Z" fill="url(#paint0_linear)"/>
<g filter="url(#filter0_d)">
<mask id="mask0" mask-type="alpha" maskUnits="userSpaceOnUse" x="0" y="0" width="2568" height="885">
<path d="M1748.07 166.791C2221.57 81.7905 2411.42 311.963 2536.59 234.791C2549.09 289.826 2560.64 300.621 2565.23 302.137C2567.83 302.996 2568.19 300.873 2565.23 302.137C2560.31 304.231 2546.25 315.624 2518.07 365.29C2424.07 530.934 2200.08 674.418 1748.07 740.29C1296.06 806.163 942.585 427.29 286.085 777.29C-343.547 1112.97 258.464 554.626 285.858 577.948L265.086 4.79052C294.252 -47.6528 174.591 346.316 796.086 414.29C1417.58 482.264 1274.57 251.791 1748.07 166.791Z" fill="url(#paint1_linear)"/>
</mask>
<g mask="url(#mask0)">
<path d="M787.471 536.898C495.332 570.272 313.818 638.526 259.579 668.481C221.777 767.555 145.881 968.866 144.713 981.525C143.253 997.348 165.732 1099.8 205.771 1182.3C245.811 1264.8 397.913 1205.58 459.676 1215.14C521.439 1224.71 2173.21 926.446 2314.8 906.411C2456.4 886.375 2425.31 513.76 2313.61 600.481C2201.92 687.201 1768.97 665.677 1467.67 609.785C1166.38 553.894 1152.64 495.179 787.471 536.898Z" fill="url(#paint2_linear)"/>
</g>
</g>
<defs>
<filter id="filter0_d" x="94.646" y="502.785" width="2364.93" height="462.205" filterUnits="userSpaceOnUse" color-interpolation-filters="sRGB">
<feFlood flood-opacity="0" result="BackgroundImageFix"/>
<feColorMatrix in="SourceAlpha" type="matrix" values="0 0 0 0 0 0 0 0 0 0 0 0 0 0 0 0 0 0 127 0"/>
<feOffset dy="30"/>
<feGaussianBlur stdDeviation="25"/>
<feColorMatrix type="matrix" values="0 0 0 0 1 0 0 0 0 0.235294 0 0 0 0 0.396078 0 0 0 0.2 0"/>
<feBlend mode="normal" in2="BackgroundImageFix" result="effect1_dropShadow"/>
<feBlend mode="normal" in="SourceGraphic" in2="effect1_dropShadow" result="shape"/>
</filter>
<linearGradient id="paint0_linear" x1="2424.56" y1="215.846" x2="422.746" y2="414.47" gradientUnits="userSpaceOnUse">
<stop stop-color="#FF3A64"/>
<stop offset="1" stop-color="#FF6784"/>
</linearGradient>
<linearGradient id="paint1_linear" x1="2424.56" y1="215.846" x2="422.746" y2="414.47" gradientUnits="userSpaceOnUse">
<stop stop-color="#FF3A64"/>
<stop offset="1" stop-color="#FF6784"/>
</linearGradient>
<linearGradient id="paint2_linear" x1="1439.59" y1="588.291" x2="853.944" y2="687.806" gradientUnits="userSpaceOnUse">
<stop stop-color="#FF3A64"/>
<stop offset="1" stop-color="#FF6784"/>
</linearGradient>
</defs>
</svg>
