<svg width="1920" height="570" viewBox="0 0 1920 570" fill="none" xmlns="http://www.w3.org/2000/svg">
<g filter="url(#filter0_i)">
<path d="M496 470.5C131.69 556.677 -107.028 293.778 -188.146 237.611C-140.627 307.699 -570.219 260.174 -389.262 -11.0576C-444.461 -106.589 -461.741 2.05316 90.7281 -108.36C643.197 -218.772 1175.51 -23.539 1584.94 -36.5005C1994.37 -49.462 2001.57 -357.657 2084.61 -194.438C2167.65 -31.2192 2120.87 510.979 2056 530.5C1866.13 587.639 1834.55 602.249 1636.78 435.874C1439 269.5 942 365 496 470.5Z" fill="url(#paint0_linear)"/>
</g>
<mask id="mask0" mask-type="alpha" maskUnits="userSpaceOnUse" x="-434" y="-242" width="2564" height="812">
<path d="M496 470.5C131.69 556.677 -107.028 293.778 -188.146 237.611C-140.627 307.699 -570.219 260.174 -389.262 -11.0575C-444.461 -106.589 -461.741 2.05322 90.7281 -108.359C643.197 -218.772 1175.51 -23.5389 1584.94 -36.5004C1994.37 -49.4619 2001.57 -357.657 2084.61 -194.438C2167.65 -31.2192 2120.87 510.979 2056 530.5C1866.13 587.639 1834.55 602.249 1636.78 435.874C1439 269.5 942 365 496 470.5Z" fill="url(#paint1_linear)"/>
</mask>
<g mask="url(#mask0)">
<path d="M121.135 233.28C677.486 -116.018 1372.38 270.914 1668.08 480.641L10.1301 1014.45C-196.551 917.866 -435.216 582.578 121.135 233.28Z" fill="url(#paint2_linear)"/>
<path d="M-5.10498 408.356C-659.358 467.416 -1103.26 -192.537 -1271.73 -513.546L448.037 -237.558C588.458 -57.7624 649.148 349.295 -5.10498 408.356Z" fill="url(#paint3_linear)"/>
</g>
<path d="M1532.27 195.202C990.233 284.331 579.804 -239.004 419.744 -496.452L1870.82 -371.095C1998.88 -229.707 2074.3 106.073 1532.27 195.202Z" fill="url(#paint4_linear)"/>
<defs>
<filter id="filter0_i" x="-434" y="-242" width="2563.17" height="841.799" filterUnits="userSpaceOnUse" color-interpolation-filters="sRGB">
<feFlood flood-opacity="0" result="BackgroundImageFix"/>
<feBlend mode="normal" in="SourceGraphic" in2="BackgroundImageFix" result="shape"/>
<feColorMatrix in="SourceAlpha" type="matrix" values="0 0 0 0 0 0 0 0 0 0 0 0 0 0 0 0 0 0 127 0" result="hardAlpha"/>
<feOffset dy="30"/>
<feGaussianBlur stdDeviation="15"/>
<feComposite in2="hardAlpha" operator="arithmetic" k2="-1" k3="1"/>
<feColorMatrix type="matrix" values="0 0 0 0 0.254902 0 0 0 0 0.494118 0 0 0 0 0.972549 0 0 0 0.5 0"/>
<feBlend mode="normal" in2="shape" result="effect1_innerShadow"/>
</filter>
<linearGradient id="paint0_linear" x1="847.584" y1="569.799" x2="847.584" y2="-242" gradientUnits="userSpaceOnUse">
<stop stop-color="#FFB950"/>
<stop offset="1" stop-color="#FF9550"/>
</linearGradient>
<linearGradient id="paint1_linear" x1="847.584" y1="569.799" x2="847.584" y2="-242" gradientUnits="userSpaceOnUse">
<stop stop-color="#FFB950"/>
<stop offset="1" stop-color="#FF9550"/>
</linearGradient>
<linearGradient id="paint2_linear" x1="634.691" y1="76.2098" x2="772.029" y2="885.083" gradientUnits="userSpaceOnUse">
<stop stop-color="#FFB950"/>
<stop offset="1" stop-color="#FF9550"/>
</linearGradient>
<linearGradient id="paint3_linear" x1="-534.053" y1="315.49" x2="-289.694" y2="-467.726" gradientUnits="userSpaceOnUse">
<stop stop-color="#FFB950"/>
<stop offset="1" stop-color="#FF9550"/>
</linearGradient>
<linearGradient id="paint4_linear" x1="1085.48" y1="149.991" x2="1241.53" y2="-518.09" gradientUnits="userSpaceOnUse">
<stop stop-color="#FFB950"/>
<stop offset="1" stop-color="#FF9550"/>
</linearGradient>
</defs>
</svg>
