<svg viewBox="0 0 283 135" fill="none" xmlns="http://www.w3.org/2000/svg">
<path fill-rule="evenodd" clip-rule="evenodd" d="M137.689 0.890015C137.706 1.15128 137.653 1.41232 137.535 1.64614C137.417 1.87996 137.239 2.07808 137.019 2.22001C137.001 1.9586 137.054 1.69718 137.172 1.46317C137.29 1.22915 137.468 1.03118 137.689 0.890015Z" fill="#8292A4"/>
<path d="M70.1798 134.65C102.4 134.65 128.52 108.53 128.52 76.31C128.52 44.0897 102.4 17.97 70.1798 17.97C37.9596 17.97 11.8398 44.0897 11.8398 76.31C11.8398 108.53 37.9596 134.65 70.1798 134.65Z" fill="white"/>
<path d="M147.179 71.09H104.369V113.9H147.179V71.09Z" fill="white"/>
<path fill-rule="evenodd" clip-rule="evenodd" d="M118.688 91.68C118.098 90.9 107.118 77.36 106.748 76.92C110.438 76.92 115.968 76.92 116.748 76.92C116.748 77.03 123.308 85.18 124.128 86.15C125.328 85.02 131.978 77.97 132.958 76.92H142.498C141.738 77.92 130.018 91.02 129.378 91.7C129.958 92.31 139.798 104.64 142.488 107.06C143.318 106.136 143.918 105.03 144.238 103.83C144.958 99.55 146.678 96.25 147.408 91.99C148.025 91.0142 148.534 89.9749 148.928 88.89C149.188 86.89 149.868 85.89 149.928 83.75C150.618 83.66 149.718 82.2 150.298 81.99C150.298 81.21 152.088 81.36 151.858 80.34C152.478 80.29 152.348 79.91 152.858 79.7C153.738 75.24 154.078 73.18 154.908 68.7C155.208 68.44 153.718 68.7 154.298 68.76C155.158 69.23 156.298 68.97 157.078 69.51C158.468 69.67 159.758 68.86 160.838 69.34C161.618 69.34 161.178 70.16 162.198 69.92C162.478 70.42 162.648 70.32 163.198 70.5C163.958 70.74 164.358 70.59 164.988 70.96C165.464 70.9578 165.938 71.0184 166.398 71.14C169.648 71.67 173.208 71.95 176.398 72.49C176.768 72.56 177.638 72.6 177.788 72.89C173.558 73.32 167.788 71.75 164.668 73.29C160.878 78.83 158.808 86.83 155.308 92.22C154.568 92.48 157.168 94.45 156.678 94.95C156.358 95.85 153.918 94.64 154.008 95.95C152.588 98.48 155.338 110.04 152.348 108.61C150.508 108.22 149.188 107.33 147.018 107.28C147.018 106.66 145.888 107.08 145.688 106.61C144.988 106.75 144.808 106.38 144.358 106.28V105.94C143.248 105.71 143.778 106.78 143.978 107.09C138.978 107.09 132.868 107.09 132.418 107.09C131.768 106.2 124.148 97.63 124.038 97.63C123.748 97.88 116.108 106.38 115.488 107.09H105.488C105.558 106.92 118.338 92.13 118.688 91.68Z" fill="#0C8EF8"/>
<path d="M153.836 64.6869L142.705 106.213L184.231 117.343L195.361 75.8175L153.836 64.6869Z" fill="white"/>
<path fill-rule="evenodd" clip-rule="evenodd" d="M181.389 96.24H179.059C179.059 91.37 178.969 75.68 178.929 73.87C177.929 73.82 165.409 73.87 165.109 73.87C164.739 74.87 157.359 94.87 156.839 96.2H154.459C154.459 96.52 154.519 110.11 154.459 110.46H161.339C161.339 109.77 161.339 103.91 161.339 103.56C161.949 103.56 174.139 103.63 174.619 103.56C174.619 104 174.619 109.87 174.619 110.4H181.369C181.449 109.92 181.379 97.55 181.389 96.24ZM171.729 96.24H165.419C165.699 95.64 170.359 84.24 171.689 80.63C171.689 81.65 171.749 95.1 171.729 96.24Z" fill="#CED544"/>
<path d="M234.449 70.84H191.639V113.65H234.449V70.84Z" fill="white"/>
<path fill-rule="evenodd" clip-rule="evenodd" d="M208.71 77.59C209.28 78.77 213.63 87.13 215.71 91.37C216.71 88.25 218.58 81.43 219.34 77.59H227C225.32 88.03 222.17 107.17 203.68 108.24V100.91C204.94 101.011 206.208 100.86 207.409 100.467C208.611 100.074 209.722 99.4461 210.68 98.62C210.18 97.3 202.27 80.18 201.02 77.62L208.71 77.59Z" fill="#FF5B57"/>
<path d="M272.288 67.3411L230.619 77.1604L240.438 118.829L282.107 109.01L272.288 67.3411Z" fill="white"/>
<path fill-rule="evenodd" clip-rule="evenodd" d="M266.22 77.55C266.22 77.86 266.29 83.84 266.22 84.91H257.71C257.71 84.91 257.71 107.44 257.71 108.23H250V84.92H241.34V77.59C242.58 77.55 265.44 77.55 266.22 77.55Z" fill="#CED544"/>
<path fill-rule="evenodd" clip-rule="evenodd" d="M69.1724 12.6313L67.4223 5.07516L64.3446 5.32138L63.9176 13.5899L66.1211 13.4136L66.1298 11.9328L66.8929 11.8718L67.1166 13.3339L69.041 13.18L69.0363 13.2L70.7443 13.1812C70.8947 12.4552 71.0329 11.6939 71.1589 10.8973C71.267 11.5329 71.4235 12.291 71.6287 13.1715L73.4666 13.1513L73.3769 14.4085L74.738 14.5056L74.83 13.2152L78.2578 13.4597L78.1658 14.7501L79.5268 14.8472L79.7336 11.9487L79.3 11.9178L79.6625 6.83655L75.2668 6.523L75.2492 6.77001C75.1675 7.91597 75.0125 8.90472 74.7843 9.73624C74.5597 10.5646 74.3038 11.1696 74.0165 11.551L73.5829 11.5201L73.4957 12.744L72.5907 9.65848L73.3691 6.44568L71.5549 6.46563C71.4584 6.87775 71.3187 7.65592 71.1358 8.80014C71.1136 8.61507 70.9585 7.84014 70.6706 6.47535L68.9625 6.49413L69.877 9.68832L69.1724 12.6313ZM66.7162 10.4262C66.5343 9.50835 66.3349 8.37315 66.1182 7.02064C66.0277 8.60117 65.9844 9.75578 65.9885 10.4845L66.7162 10.4262ZM56.128 13.7545L55.2794 10.4348C55.2051 10.1443 55.151 9.96688 55.1172 9.90251C55.0429 9.76153 54.9356 9.70899 54.7952 9.74487C54.6516 9.78159 54.5814 9.88124 54.5848 10.0438C54.5868 10.1198 54.6241 10.2998 54.6967 10.5838L55.4915 13.6929C55.5867 14.065 55.7321 14.226 55.928 14.176C56.1206 14.1267 56.1872 13.9863 56.128 13.7545ZM55.2775 8.46879C56.2176 8.22846 56.8061 8.48315 57.0429 9.23286C57.1551 9.59017 57.2667 9.9859 57.3777 10.42L57.7833 12.0064C57.971 12.7409 58.0501 13.2544 58.0206 13.5471C57.9262 14.3746 57.3126 14.9331 56.1799 15.2226C55.7556 15.3311 55.4764 15.3955 55.3425 15.4158C55.0592 15.45 54.8045 15.4265 54.5785 15.3451C54.2175 15.2114 53.9396 14.9747 53.745 14.6349C53.6047 14.3856 53.4599 13.9688 53.3106 13.3846L52.3355 9.57037C52.1978 9.03179 52.2655 8.54849 52.5386 8.12049C52.8109 7.68923 53.2359 7.39975 53.8137 7.25205C54.0552 7.1903 54.4054 7.11817 54.8642 7.03566C55.323 6.95314 55.6226 6.89395 55.7629 6.85807C55.9359 6.81384 56.0778 6.7567 56.1886 6.68666L56.4502 7.70998C56.3019 7.79656 56.1805 7.85196 56.0858 7.87615C55.9095 7.92122 55.6549 7.97241 55.3218 8.02974C54.9919 8.08624 54.7568 8.13243 54.6165 8.16831C54.3488 8.23674 54.2165 8.40618 54.2196 8.67664C54.2192 8.75672 54.2632 8.96976 54.3517 9.31577C54.5674 8.85375 54.876 8.57142 55.2775 8.46879ZM52.5941 14.2224L51.5981 9.43817L49.8408 10.0313L50.9807 14.4203L48.9022 10.348L47.1449 10.9412L49.997 15.8991C50.2093 16.2648 50.3241 16.4732 50.3414 16.5242C50.3769 16.6296 50.357 16.7127 50.2816 16.7738C50.2051 16.8316 50.0168 16.9111 49.7167 17.0124L50.0593 18.0275L51.2325 17.6316C51.7688 17.4506 52.1442 17.2776 52.3588 17.1128C52.5777 16.95 52.7267 16.7593 52.8058 16.5405C52.8848 16.3218 52.9084 16.0703 52.8764 15.786C52.8477 15.5005 52.7535 14.9794 52.5941 14.2224ZM47.3626 18.1059L45.2802 13.2307L44.6156 13.5146L45.9457 16.6284C46.1879 17.1954 46.2962 17.6291 46.2706 17.9294C46.2437 18.2267 46.1025 18.4665 45.847 18.6489C45.5933 18.8269 45.1474 19.0522 44.5091 19.3248L44.266 19.4287L44.2853 19.4389L42.5553 20.3628C42.3253 20.2532 42.135 20.0576 41.9846 19.7759L41.3195 18.5307C41.1058 18.1305 40.8077 18.0325 40.4252 18.2367L41.7815 20.7761L40.007 21.7238L36.855 15.8223L38.6295 14.8746L39.8551 17.1694C40.2317 16.9683 40.313 16.6676 40.0993 16.2674L39.5648 15.2667C39.3495 14.8635 39.2927 14.5966 39.3944 14.4661L41.1244 13.5421C41.0939 13.8061 41.1792 14.1263 41.3803 14.5028L41.8198 15.3256C41.9734 15.6132 41.9837 15.9144 41.8508 16.2292C41.8029 16.3463 41.6758 16.5437 41.4698 16.8214C41.3378 17.0024 41.1622 17.1553 40.943 17.28C41.0563 17.2423 41.2766 17.1875 41.604 17.1156C42.3223 16.9835 42.812 17.162 43.0733 17.6512L43.6267 18.6874C43.794 19.0006 43.9727 19.2259 44.1628 19.3633L43.7716 18.4474C44.0088 18.3424 44.1605 18.2428 44.2265 18.1486C44.2912 18.0514 44.2494 17.8293 44.1012 17.4822L42.1954 13.0207L46.5919 11.1427L49.2263 17.3099L47.3626 18.1059ZM38.0412 22.863L36.5692 23.8619L34.5345 20.8635L35.3941 24.6593L33.8552 25.7036L30.0896 20.1543L31.5616 19.1554L33.5792 22.1287L32.7157 18.3722L34.2756 17.3138L38.0412 22.863ZM31.5393 16.7826L32.2502 16.3001C32.4908 16.6906 32.5864 17.0716 32.5371 17.443C32.4906 17.8125 32.2848 18.1211 31.9196 18.369C31.5516 18.6187 31.1873 18.6969 30.8268 18.6036C30.4671 18.5056 30.1512 18.2741 29.8791 17.9091L30.59 17.4267C30.8827 17.7859 31.1698 17.87 31.4513 17.679C31.7357 17.486 31.765 17.1872 31.5393 16.7826ZM32.0524 27.1188L33.44 25.9981L29.215 20.7672L27.7447 21.9548L28.9204 25.6362L26.6567 22.8335L25.2692 23.9543L29.4941 29.1852L30.9447 28.0135L29.7696 24.2925L32.0524 27.1188ZM22.6751 26.519L24.4744 28.3965C24.7825 28.1013 24.7796 27.7899 24.4657 27.4624L23.6812 26.6437C23.365 26.3138 23.2383 26.0723 23.3009 25.9192L24.7164 24.5627C24.7583 24.825 24.9269 25.1102 25.2221 25.4183L25.8672 26.0914C26.0927 26.3267 26.1841 26.6138 26.1412 26.9527C26.1266 27.0784 26.0577 27.3026 25.9344 27.6256C25.8563 27.8354 25.7286 28.0299 25.5513 28.2091C25.6501 28.1423 25.8474 28.0301 26.143 27.8724C26.7986 27.5513 27.3182 27.5909 27.7017 27.9911L28.5142 28.8389C28.8118 29.1494 29.0907 29.3312 29.351 29.3843L27.9355 30.7407C27.6846 30.6974 27.4486 30.5605 27.2278 30.33L26.2514 29.3112C25.9376 28.9837 25.6242 28.9699 25.3113 29.2698L27.3024 31.3475L25.8506 32.7388L21.2232 27.9103L22.6751 26.519ZM21.1066 31.6135L22.3967 30.1694C21.9242 29.7473 21.5173 29.4679 21.176 29.3311C20.8347 29.1944 20.4531 29.1919 20.0309 29.3237C19.6088 29.4554 19.2194 29.7209 18.8628 30.1202C18.5039 30.5219 18.285 30.9398 18.2063 31.3738C18.125 31.8055 18.1547 32.1614 18.2952 32.4414C18.4358 32.7215 18.7196 33.0523 19.1466 33.4337L20.5756 34.7103C21.0658 35.1482 21.4911 35.435 21.8515 35.5706C22.2116 35.7015 22.5791 35.7072 22.9539 35.5877C23.3262 35.466 23.7053 35.189 24.0913 34.757C24.3938 34.4184 24.5947 34.0867 24.694 33.7619C24.7908 33.4349 24.7975 33.107 24.7142 32.7781C24.6306 32.4445 24.5002 32.1759 24.3232 31.9723C24.1459 31.7639 23.8575 31.479 23.458 31.1175L22.239 32.482L22.8379 33.017C23.0981 33.2495 23.2581 33.4265 23.3177 33.5479C23.3796 33.6668 23.3643 33.778 23.2717 33.8816C23.1927 33.9701 23.0887 33.9975 22.9596 33.964C22.828 33.9282 22.6725 33.8302 22.4931 33.6699L20.1204 31.5503C19.9005 31.3539 19.7726 31.2124 19.7365 31.1256C19.7004 31.0389 19.7219 30.9513 19.8009 30.8628C19.8799 30.7744 19.9707 30.7465 20.0733 30.7791C20.1734 30.8094 20.3246 30.9149 20.5267 31.0955L21.1066 31.6135ZM22.1903 36.7892L21.1202 38.2103L18.2256 36.0306L20.266 39.3447L19.1473 40.8304L13.79 36.7963L14.8601 35.3752L17.7305 37.5367L15.6991 34.261L16.833 32.7551L22.1903 36.7892ZM14.0719 33.1369L14.5887 32.4506C14.9426 32.7424 15.1562 33.072 15.2297 33.4393C15.3051 33.804 15.2101 34.1627 14.9446 34.5152C14.6771 34.8705 14.3576 35.0623 13.9863 35.0905C13.6143 35.1141 13.2406 34.9971 12.8651 34.7397L13.3819 34.0534C13.7749 34.2987 14.0738 34.2855 14.2785 34.0136C14.4852 33.7391 14.4163 33.4469 14.0719 33.1369ZM14.7093 41.7272L16.1102 39.4806L15.3542 39.0092C14.8014 38.6646 14.3331 38.462 13.9492 38.4016C13.5642 38.3366 13.181 38.4058 12.7995 38.6094C12.4169 38.8084 12.0739 39.1513 11.7703 39.6381C11.5221 40.0362 11.3798 40.4366 11.3434 40.8395C11.3041 41.2406 11.3871 41.5986 11.5924 41.9135C11.7949 42.2267 12.1452 42.5386 12.6435 42.8493L14.306 43.8859C14.7298 44.1501 15.0722 44.3219 15.333 44.401C15.591 44.4784 15.8613 44.4977 16.1439 44.4592C16.4254 44.4159 16.7066 44.287 16.9876 44.0725C17.2685 43.8579 17.5233 43.5673 17.7518 43.2007C17.9875 42.8227 18.1301 42.4761 18.1795 42.1609C18.2278 41.841 18.1954 41.5325 18.0824 41.2354C17.9694 40.9382 17.8318 40.7092 17.6696 40.5484C17.5092 40.3847 17.2528 40.1931 16.9006 39.9734L16.4796 39.7109L15.4538 41.3562L16.2055 41.8249C16.489 42.0017 16.6666 42.1442 16.7383 42.2526C16.8088 42.3562 16.8031 42.4739 16.7209 42.6057C16.6549 42.7116 16.573 42.76 16.4753 42.7508C16.3776 42.7416 16.1999 42.6567 15.9422 42.4959L14.7093 41.7272ZM13.6809 40.382L14.0975 40.6418L13.7815 41.1487L13.3648 40.8889C13.0441 40.6889 12.8568 40.5522 12.8031 40.479C12.7465 40.4039 12.7557 40.3062 12.8307 40.1859C12.8914 40.0886 12.9745 40.0509 13.0801 40.073C13.1856 40.0951 13.3859 40.1981 13.6809 40.382ZM9.03117 44.7725L9.53888 45.0776C9.41109 44.8056 9.34563 44.5452 9.3425 44.2965C9.33937 44.0478 9.39786 43.8085 9.51797 43.5786C9.6646 43.2979 9.8671 43.0958 10.1255 42.9722C10.3824 42.8442 10.6227 42.8062 10.8463 42.8584C11.0699 42.9106 11.4176 43.0599 11.8895 43.3064L14.3935 44.6143C14.934 44.8967 15.3021 45.1307 15.4977 45.3165C15.6919 45.4978 15.8054 45.7244 15.8383 45.9962C15.8697 46.2635 15.8121 46.5375 15.6655 46.8182C15.5485 47.0422 15.3878 47.2224 15.1835 47.3589C14.9791 47.4955 14.7326 47.5891 14.4439 47.6397L15.8056 48.351L14.8603 50.1607L8.06951 46.6136L9.03117 44.7725ZM11.0293 45.1605C10.662 44.9687 10.4325 44.8659 10.3408 44.8522C10.2491 44.8385 10.1713 44.8929 10.1074 45.0154C10.045 45.1348 10.0492 45.2358 10.1201 45.3185C10.1925 45.3981 10.4004 45.5276 10.7439 45.707L13.2075 46.9939C13.5659 47.1811 13.7992 47.2802 13.9075 47.2911C14.0158 47.3021 14.1012 47.2478 14.1636 47.1284C14.2244 47.0119 14.2215 46.9192 14.155 46.8502C14.0869 46.7767 13.8947 46.6572 13.5781 46.4919L11.0293 45.1605ZM13.3303 50.3336C13.2178 49.9602 12.8467 49.6401 12.217 49.3732L11.8541 49.2194C11.5004 49.0695 11.1606 49.0553 10.8346 49.177C10.5068 49.2942 10.2317 49.5289 10.0093 49.881C10.2208 49.1144 9.97754 48.5832 9.27959 48.2873C8.6716 48.0296 8.18084 47.9918 7.8073 48.1738C7.43507 48.3527 7.0879 48.8221 6.76577 49.5821L5.82503 51.8016L11.9996 54.4187L12.9127 52.2643C13.3019 51.3461 13.4411 50.7026 13.3303 50.3336ZM9.02368 50.3415C9.06873 50.4338 9.03077 50.6226 8.90981 50.908L7.90942 50.484C8.02381 50.2141 8.13024 50.058 8.22873 50.0155C8.32721 49.9731 8.46486 49.9894 8.64167 50.0643C8.85261 50.1537 8.97995 50.2461 9.02368 50.3415ZM10.9263 51.0327L11.1357 51.1214C11.4025 51.2345 11.556 51.3471 11.5962 51.4593C11.6334 51.5702 11.5987 51.7513 11.4922 52.0026L10.0638 51.3971C10.1781 51.1272 10.2846 50.9711 10.3831 50.9287C10.4784 50.8849 10.6595 50.9196 10.9263 51.0327ZM8.76228 53.8311L7.92756 56.3389L9.30374 56.797C9.59144 56.8928 9.78377 56.9337 9.88072 56.9198C9.97766 56.9059 10.0458 56.8398 10.0852 56.7215C10.1341 56.5745 10.1122 56.4589 10.0195 56.3748C9.92465 56.2864 9.71899 56.1895 9.40251 56.0842L8.56338 55.8049L9.17466 53.9684L9.64457 54.1248C10.0378 54.2557 10.3313 54.3818 10.5253 54.5032C10.7203 54.6213 10.9074 54.8114 11.0865 55.0734C11.2656 55.3355 11.3691 55.6273 11.3969 55.9491C11.4226 56.2666 11.3652 56.6363 11.2248 57.0582C11.0886 57.4674 10.9092 57.809 10.6867 58.0829C10.4641 58.3568 10.2213 58.5476 9.95818 58.6553C9.69294 58.7588 9.42607 58.8031 9.15758 58.7883C8.88589 58.7725 8.51349 58.6858 8.04038 58.5283L6.18469 57.9106C5.62846 57.7255 5.21551 57.5046 4.94585 57.248C4.67299 56.9902 4.50878 56.6622 4.4532 56.2637C4.39443 55.8642 4.43899 55.4423 4.58689 54.998C4.76778 54.4545 5.02063 54.0416 5.34546 53.7591C5.66816 53.4723 6.02394 53.3156 6.4128 53.2888C6.79954 53.2577 7.30138 53.3449 7.91835 53.5502L8.76228 53.8311ZM7.08015 55.4284L6.61503 55.2736C6.28577 55.164 6.06734 55.1108 5.95973 55.114C5.85213 55.1173 5.78023 55.1732 5.74406 55.2819C5.69937 55.4162 5.71326 55.5131 5.78574 55.5728C5.85501 55.6313 6.06867 55.7202 6.4267 55.8394L6.89182 55.9942L7.08015 55.4284ZM9.36554 63.2102L9.72171 61.4673L3.15124 60.1246L2.77381 61.9715L6.01496 64.0575L2.49454 63.338L2.13836 65.0809L8.70883 66.4237L9.0812 64.6016L5.8154 62.4847L9.36554 63.2102ZM0.993652 60.8133L0.821634 61.655C1.26576 61.7871 1.45343 62.0214 1.38462 62.3581C1.31649 62.6915 1.05226 62.8318 0.59194 62.779L0.419922 63.6207C0.869593 63.692 1.25735 63.6371 1.5832 63.4561C1.90642 63.2711 2.11255 62.9608 2.2016 62.5251C2.28997 62.0927 2.22179 61.728 1.99705 61.431C1.773 61.1308 1.43853 60.9248 0.993652 60.8133ZM6.35808 69.2783C6.96762 69.3451 7.39679 69.4649 7.6456 69.6379C7.89478 69.8076 8.03617 70.0484 8.06977 70.3605C8.10003 70.6723 8.07738 71.1731 8.00182 71.863L7.74488 74.2091L1.07847 73.479L1.29909 71.4645L3.51956 71.7077L3.55587 71.3761C3.62666 70.7297 3.71799 70.2517 3.82986 69.942C3.94174 69.6322 4.13654 69.4163 4.41428 69.2942C4.69202 69.1721 5.11389 69.142 5.67989 69.204L6.35808 69.2783ZM5.89075 71.2709L5.62449 71.2417C5.27954 71.2039 5.06636 71.2162 4.98498 71.2784C4.90396 71.3373 4.84083 71.527 4.79557 71.8474L6.5639 72.0411C6.59324 71.7732 6.57956 71.5886 6.52285 71.4875C6.46315 71.3827 6.25245 71.3105 5.89075 71.2709ZM8.55035 66.8544L8.32973 68.8689L1.66331 68.1388L1.88393 66.1243L8.55035 66.8544ZM7.76982 76.7312L7.7833 74.6997L1.07717 74.6552L1.06369 76.6867L3.47426 76.7027L3.4694 77.4355L1.05883 77.4195L1.04539 79.446L7.75152 79.4905L7.76496 77.464L5.29375 77.4476L5.29861 76.7148L7.76982 76.7312ZM3.60545 80.2058L3.74714 82.126L2.97601 82.1829C2.70721 82.2027 2.52738 82.238 2.43653 82.2886C2.34231 82.3395 2.29954 82.4237 2.30822 82.5413C2.31689 82.6589 2.36472 82.7348 2.4517 82.7689C2.53867 82.803 2.72832 82.8093 3.02064 82.7877L6.17569 82.5549C6.41425 82.5373 6.59178 82.4938 6.70827 82.4244C6.82141 82.3552 6.87364 82.2619 6.86496 82.1443C6.8548 82.0065 6.78582 81.9187 6.65803 81.8808C6.52999 81.8396 6.29293 81.8317 5.94685 81.8573L5.15053 81.916L5.01665 80.1016C5.55114 80.0656 5.95415 80.0561 6.22568 80.0732C6.49359 80.0872 6.77574 80.1796 7.07211 80.3503C7.36488 80.5179 7.59478 80.7492 7.76182 81.0443C7.9255 81.3397 8.02395 81.7125 8.05718 82.1627C8.09957 82.7373 8.03572 83.1997 7.86564 83.5501C7.69219 83.9007 7.43427 84.1596 7.09188 84.3268C6.74589 84.4908 6.24697 84.5969 5.59513 84.645L3.69504 84.7852C3.1272 84.8271 2.69459 84.8016 2.3972 84.7087C2.09981 84.6157 1.82479 84.3911 1.57215 84.0348C1.31615 83.6787 1.16844 83.2335 1.12902 82.6992C1.08985 82.1684 1.16894 81.7065 1.36629 81.3135C1.56365 80.9206 1.8291 80.6493 2.16264 80.4997C2.49619 80.3501 2.97713 80.2521 3.60545 80.2058ZM5.34876 87.9945L4.9476 85.382L4.06845 85.517C3.42574 85.6157 2.93939 85.7671 2.60941 85.9712C2.27559 86.1724 2.0305 86.4742 1.87413 86.8766C1.71392 87.2761 1.67729 87.759 1.76422 88.3251C1.8353 88.788 1.98811 89.1838 2.22265 89.5125C2.45386 89.8417 2.74965 90.0587 3.11003 90.1636C3.46707 90.269 3.93532 90.2772 4.51475 90.1882L6.44788 89.8914C6.94074 89.8157 7.31167 89.7229 7.56068 89.6131C7.80636 89.5038 8.02362 89.3426 8.21246 89.1296C8.39747 88.9137 8.52652 88.6331 8.59962 88.2878C8.67272 87.9426 8.67654 87.5568 8.61109 87.1305C8.54359 86.691 8.42599 86.3358 8.25828 86.065C8.08674 85.7914 7.86152 85.5788 7.58261 85.4274C7.3037 85.2759 7.05052 85.1921 6.82306 85.1759C6.5951 85.1563 6.27631 85.178 5.86671 85.2409L5.37718 85.3161L5.67096 87.2292L6.54511 87.095C6.87479 87.0444 7.102 87.0367 7.22674 87.0721C7.34763 87.1047 7.41984 87.1976 7.44336 87.3508C7.46228 87.474 7.43177 87.5639 7.35184 87.6205C7.2719 87.677 7.08208 87.7284 6.78237 87.7744L5.34876 87.9945ZM3.69476 87.6452L4.17929 87.5708L4.26981 88.1602L3.78527 88.2346C3.4123 88.2919 3.18163 88.3103 3.09327 88.2897C3.00157 88.2697 2.94498 88.1898 2.92351 88.0499C2.90612 87.9367 2.94457 87.8541 3.03884 87.8021C3.13312 87.7502 3.35176 87.6978 3.69476 87.6452ZM3.06631 94.0174L3.648 93.9157C3.37412 93.7943 3.1548 93.6409 2.99005 93.4556C2.8253 93.2703 2.71309 93.0518 2.65343 92.8002C2.58059 92.493 2.60115 92.2085 2.71513 91.9467C2.82507 91.6825 2.98129 91.497 3.18381 91.3903C3.38633 91.2836 3.74577 91.1691 4.26212 91.0466L7.0024 90.3969C7.59392 90.2566 8.02402 90.1926 8.29271 90.2048C8.55736 90.2146 8.7908 90.3111 8.99305 90.4944C9.19126 90.6752 9.32678 90.9192 9.39962 91.2264C9.45774 91.4715 9.45441 91.7122 9.38962 91.9485C9.32483 92.1848 9.20022 92.4163 9.0158 92.6429L10.506 92.2896L10.9756 94.27L3.54404 96.0322L3.06631 94.0174ZM4.82485 93.005C4.42288 93.1003 4.1829 93.1727 4.1049 93.2223C4.02691 93.2719 4.00379 93.3636 4.03557 93.4976C4.06656 93.6283 4.13573 93.7017 4.24307 93.7177C4.34964 93.7304 4.59083 93.6921 4.96666 93.603L7.66282 92.9637C8.05498 92.8708 8.29544 92.793 8.38418 92.7306C8.47293 92.6681 8.5018 92.5715 8.4708 92.4408C8.44058 92.3133 8.37787 92.2454 8.28265 92.2369C8.1834 92.2259 7.96056 92.2615 7.61415 92.3436L4.82485 93.005ZM7.04544 98.6863L4.56424 99.4886L5.18467 101.407L11.5656 99.3438L10.9452 97.4252L8.19949 98.3131C8.06576 97.8996 8.21529 97.6228 8.64805 97.4829L9.99445 97.0475C10.299 96.949 10.5257 96.796 10.6746 96.5885L10.0697 94.718C9.908 94.9296 9.62197 95.1018 9.21165 95.2345L8.09126 95.5968C7.56232 95.7678 7.29935 96.2194 7.30236 96.9514C7.31533 97.2871 7.33033 97.5142 7.34738 97.6326C7.26322 97.3942 7.14356 97.1939 6.9884 97.0316C6.75094 96.7791 6.57871 96.6188 6.47171 96.5507C6.18465 96.3638 5.88564 96.3207 5.57469 96.4212L4.68511 96.7089C4.27799 96.8405 3.94692 96.8679 3.6919 96.7911L4.29678 98.6616C4.40754 98.7851 4.68091 98.7764 5.11689 98.6354L6.19881 98.2855C6.63158 98.1456 6.91379 98.2792 7.04544 98.6863ZM7.85338 101.322L8.5865 103.103L7.87152 103.397C7.62229 103.5 7.4624 103.589 7.39184 103.666C7.31817 103.744 7.30379 103.837 7.34869 103.946C7.39358 104.055 7.46267 104.112 7.55595 104.117C7.64923 104.123 7.83138 104.07 8.10242 103.958L11.0278 102.753C11.2489 102.662 11.4041 102.566 11.4931 102.463C11.5791 102.363 11.5996 102.258 11.5547 102.148C11.5021 102.021 11.4092 101.959 11.276 101.963C11.1415 101.963 10.9138 102.03 10.5929 102.162L9.85455 102.466L9.16184 100.784C9.65847 100.583 10.0384 100.448 10.3018 100.38C10.5607 100.31 10.8576 100.309 11.1924 100.379C11.5228 100.447 11.8134 100.595 12.0641 100.824C12.3117 101.053 12.5214 101.377 12.6933 101.794C12.9126 102.327 12.9961 102.786 12.9437 103.172C12.8882 103.56 12.7238 103.886 12.4506 104.152C12.1729 104.415 11.7319 104.672 11.1275 104.92L9.36579 105.646C8.83929 105.863 8.42028 105.973 8.10874 105.978C7.7972 105.982 7.46587 105.854 7.11475 105.594C6.76052 105.336 6.48142 104.959 6.27745 104.464C6.07477 103.971 6.00596 103.508 6.07102 103.073C6.13608 102.638 6.30376 102.298 6.57406 102.051C6.84437 101.805 7.27081 101.562 7.85338 101.322ZM11.2123 105.573L9.74679 106.315C9.32292 106.529 9.02248 106.719 8.84548 106.884C8.66695 107.046 8.5203 107.257 8.40552 107.515C8.29074 107.773 8.24776 108.08 8.27659 108.435C8.30089 108.789 8.41648 109.171 8.62336 109.579C8.86979 110.066 9.1668 110.418 9.51439 110.635C9.86198 110.852 10.2225 110.941 10.596 110.903C10.9695 110.866 11.4343 110.706 11.9905 110.424L13.5236 109.649C14.0317 109.392 14.3967 109.165 14.6188 108.97C14.8378 108.776 14.9988 108.557 15.1015 108.312C15.1998 108.066 15.2233 107.78 15.172 107.455C15.1177 107.131 14.9887 106.768 14.7848 106.365C14.6023 106.005 14.3899 105.712 14.1478 105.487C13.9011 105.261 13.6247 105.114 13.3185 105.046C13.0093 104.979 12.7162 104.982 12.4393 105.054C12.1594 105.128 11.7504 105.301 11.2123 105.573ZM9.6656 108.707C9.72703 108.634 9.91106 108.52 10.2177 108.365L12.9774 106.968C13.2359 106.838 13.4134 106.771 13.5098 106.767C13.6047 106.761 13.6795 106.811 13.7343 106.92C13.7875 107.025 13.7812 107.117 13.7153 107.195C13.6463 107.276 13.4706 107.387 13.188 107.53L10.4869 108.897C10.1803 109.052 9.97878 109.131 9.88237 109.135C9.78295 109.14 9.70585 109.088 9.65109 108.98C9.59633 108.872 9.60117 108.781 9.6656 108.707ZM10.5159 115.571L11.6196 117.375L18.5743 113.121L17.2945 111.029C16.8495 110.301 16.5136 109.846 16.2869 109.662C16.0602 109.478 15.8013 109.402 15.5103 109.434C15.2174 109.464 14.8362 109.622 14.3665 109.91L13.7222 110.304C13.2697 110.581 12.9802 110.86 12.8537 111.142C12.7243 111.426 12.7402 111.806 12.9015 112.282C12.5861 111.959 12.3096 111.784 12.0722 111.756C11.833 111.725 11.51 111.834 11.1034 112.083C10.502 112.451 10.1219 112.807 9.96305 113.153C9.80136 113.499 9.76636 113.847 9.85803 114.197C9.94795 114.543 10.1672 115.001 10.5159 115.571ZM13.2496 113.893L11.7031 114.839C11.5921 114.651 11.5288 114.519 11.5132 114.442C11.4958 114.362 11.5192 114.275 11.5835 114.18C11.6449 114.088 11.7844 113.975 12.002 113.841C12.4144 113.589 12.6799 113.46 12.7984 113.455C12.9141 113.451 13.0263 113.538 13.1349 113.715C13.1612 113.758 13.1994 113.817 13.2496 113.893ZM16.278 112.04L14.3321 113.231C14.176 112.956 14.1102 112.768 14.1346 112.667C14.1591 112.565 14.3202 112.423 14.6181 112.241L15.2667 111.844C15.5474 111.673 15.7454 111.601 15.8608 111.628C15.9744 111.653 16.1135 111.791 16.278 112.04ZM61.1864 7.75385L60.0027 7.93667L60.002 10.7135L60.862 13.5005L62.0457 13.3177L61.1857 10.5307L61.1864 7.75385ZM63.0193 7.47075L61.8356 7.65357L61.83 10.4311L62.695 13.2174L63.8787 13.0346L63.0137 10.2483L63.0193 7.47075ZM77.2786 11.7736L77.5336 8.19959L77.0043 8.16184L76.9993 8.23241C76.9106 9.47583 76.6256 10.6293 76.1444 11.6927L77.2786 11.7736ZM83.8545 12.3412L85.1626 7.62608L83.3265 7.34787L82.3278 11.7772L82.3458 7.1993L80.5097 6.92109L80.7739 12.6421C80.7952 13.065 80.8017 13.3032 80.7936 13.3565C80.777 13.4666 80.7211 13.5315 80.626 13.5512C80.5314 13.5676 80.3273 13.552 80.0138 13.5045L79.8531 14.5652L81.0788 14.7509C81.6392 14.8358 82.0527 14.8541 82.3193 14.8058C82.5888 14.7613 82.8089 14.6599 82.9796 14.5015C83.1503 14.3431 83.2866 14.1301 83.3886 13.8623C83.4939 13.5951 83.6492 13.088 83.8545 12.3412ZM89.8303 8.73089L89.5045 10.0975L88.3689 9.82678L87.1395 14.9836L85.1583 14.5112L86.3878 9.35444L85.2473 9.08253L85.5732 7.7159L89.8303 8.73089ZM92.6913 12.8621L93.0444 10.1071L91.8942 9.77294L91.5411 12.528L90.3235 15.1792L91.4737 15.5134L92.6913 12.8621ZM90.9102 12.3447L91.2682 9.59106L90.118 9.2569L89.7601 12.0105L88.5473 14.6632L89.6975 14.9974L90.9102 12.3447ZM96.7989 9.31436L98.7909 10.1039C99.3297 10.3174 99.7263 10.5235 99.981 10.7223C100.239 10.9223 100.408 11.1307 100.489 11.3476C100.573 11.5657 100.594 11.7989 100.554 12.0475C100.518 12.2941 100.405 12.6554 100.217 13.1315L99.9541 13.7939C99.7617 14.2794 99.5713 14.6135 99.3829 14.7961C99.1946 14.9788 98.9421 15.0763 98.6256 15.0885C98.3122 15.102 97.9394 15.0231 97.5071 14.8518L96.9762 14.6414L95.7622 17.7046L93.7843 16.9207L96.7989 9.31436ZM98.261 11.3997L97.4939 13.3353C97.549 13.3608 97.597 13.3816 97.6377 13.3977C97.8193 13.4697 97.962 13.4755 98.0657 13.4152C98.1737 13.3529 98.2836 13.1808 98.3953 12.8989L98.643 12.274C98.746 12.0141 98.7723 11.8288 98.7219 11.7182C98.6715 11.6076 98.5179 11.5015 98.261 11.3997ZM103.738 18.3419L104.461 16.8636C104.67 16.4361 104.795 16.1029 104.837 15.864C104.882 15.6266 104.872 15.3701 104.808 15.0944C104.743 14.8188 104.592 14.5477 104.354 14.2811C104.121 14.013 103.798 13.7781 103.386 13.5765C102.894 13.3364 102.444 13.2347 102.036 13.2716C101.627 13.3084 101.285 13.4549 101.009 13.7109C100.734 13.967 100.459 14.3755 100.185 14.9365L99.4287 16.4829C99.1782 16.9953 99.0233 17.3967 98.964 17.6871C98.9062 17.9744 98.9101 18.2468 98.9758 18.5044C99.046 18.7604 99.1999 19.0028 99.4374 19.2316C99.6764 19.4574 99.9991 19.6696 100.405 19.8683C100.769 20.0462 101.116 20.1518 101.445 20.185C101.779 20.2168 102.089 20.1672 102.375 20.0364C102.662 19.9025 102.894 19.723 103.072 19.498C103.251 19.27 103.473 18.8846 103.738 18.3419ZM103.08 14.9038C103.075 14.999 102.997 15.2012 102.846 15.5105L101.485 18.294C101.357 18.5548 101.256 18.7157 101.181 18.7768C101.109 18.8393 101.019 18.8439 100.91 18.7905C100.804 18.7386 100.753 18.6613 100.758 18.5587C100.765 18.4529 100.838 18.2576 100.977 17.9725L102.309 15.2481C102.46 14.9388 102.573 14.7536 102.648 14.6926C102.725 14.6285 102.818 14.6231 102.927 14.6765C103.036 14.7299 103.087 14.8056 103.08 14.9038ZM108.951 19.7431L107.295 18.7618L107.689 18.0966C107.826 17.8647 107.9 17.697 107.91 17.5935C107.922 17.4871 107.878 17.4039 107.776 17.3438C107.675 17.2837 107.585 17.2796 107.508 17.3314C107.43 17.3833 107.316 17.5353 107.167 17.7875L105.555 20.5095C105.433 20.7153 105.367 20.8858 105.357 21.0211C105.349 21.1534 105.396 21.2497 105.498 21.3098C105.616 21.3802 105.728 21.3737 105.832 21.2905C105.939 21.209 106.081 21.019 106.258 20.7204L106.665 20.0334L108.23 20.9606C107.954 21.4198 107.732 21.7559 107.562 21.9689C107.398 22.1808 107.161 22.3595 106.851 22.5051C106.546 22.6496 106.225 22.706 105.887 22.6744C105.552 22.6399 105.189 22.5076 104.801 22.2775C104.305 21.9839 103.962 21.6671 103.772 21.3273C103.583 20.9846 103.518 20.625 103.577 20.2485C103.64 19.8708 103.838 19.4008 104.171 18.8384L105.142 17.1992C105.433 16.7093 105.701 16.3689 105.947 16.178C106.193 15.9871 106.535 15.8898 106.972 15.8862C107.41 15.8796 107.86 16.0129 108.321 16.2859C108.779 16.5572 109.112 16.8861 109.322 17.2726C109.532 17.6592 109.603 18.032 109.535 18.3912C109.467 18.7504 109.272 19.2011 108.951 19.7431ZM111.69 21.6421L113.266 22.7487C113.628 22.2331 113.856 21.7988 113.952 21.446C114.047 21.0931 114.006 20.7159 113.827 20.3143C113.648 19.9127 113.34 19.5589 112.905 19.253C112.466 18.9451 112.028 18.7774 111.59 18.75C111.155 18.7198 110.807 18.7903 110.546 18.9616C110.286 19.1329 109.992 19.4515 109.665 19.9175L108.57 21.4766C108.194 22.0115 107.961 22.4648 107.868 22.8364C107.781 23.2073 107.818 23.5708 107.979 23.9271C108.143 24.2807 108.46 24.623 108.932 24.9541C109.301 25.2136 109.652 25.3735 109.984 25.4339C110.318 25.4916 110.643 25.4602 110.958 25.3398C111.278 25.2185 111.528 25.0587 111.709 24.8602C111.894 24.661 112.142 24.3431 112.452 23.9067L110.964 22.8611L110.505 23.5145C110.305 23.7985 110.149 23.977 110.036 24.0499C109.926 24.1248 109.814 24.1226 109.701 24.0432C109.604 23.9754 109.565 23.8759 109.583 23.7445C109.604 23.6104 109.682 23.4455 109.82 23.2497L111.638 20.6608C111.806 20.4209 111.931 20.2781 112.013 20.2324C112.094 20.1867 112.183 20.1978 112.28 20.2655C112.376 20.3333 112.415 20.4198 112.394 20.5249C112.376 20.6273 112.289 20.7887 112.134 21.0093L111.69 21.6421ZM115.081 29.6292L113.713 28.491L116.032 25.7063L112.622 27.5823L111.193 26.3924L115.484 21.2386L116.851 22.3768L114.552 25.1382L117.923 23.2692L119.371 24.4754L115.081 29.6292ZM117.237 31.7917L118.68 33.2138L123.374 28.4524L122.301 27.3946C121.39 26.4961 120.694 26.0153 120.214 25.9522C119.738 25.889 119.267 26.0943 118.8 26.5679C118.378 26.9961 118.136 27.3446 118.073 27.6135C118.014 27.8799 118.142 28.1997 118.458 28.5728C118.119 28.3804 117.858 28.2646 117.675 28.2256C117.494 28.1888 117.326 28.2185 117.17 28.3147C117.016 28.4084 116.799 28.5976 116.518 28.8822L115.418 29.9982L116.746 31.3071L118.037 29.9974C118.252 29.7797 118.432 29.6656 118.58 29.6551C118.729 29.6469 118.897 29.7348 119.084 29.9187L117.237 31.7917ZM121.019 27.956L119.898 29.0934C119.711 28.9095 119.616 28.7474 119.613 28.6073C119.614 28.4672 119.728 28.2823 119.954 28.0526L120.014 27.9916C120.236 27.7668 120.408 27.6551 120.529 27.6566C120.652 27.6557 120.767 27.7072 120.872 27.811L121.019 27.956Z" fill="white"/>
<path fill-rule="evenodd" clip-rule="evenodd" d="M94.58 36.52C94.84 36.58 101.2 44.39 101.67 45.63C106.82 55.71 101.67 63.3 98.0499 68.63C97.13 70.26 92.6599 75.83 91.7399 77.13C92.3799 77.85 109.14 93.57 109.48 93.57C106.1 103.57 101.98 109.28 99.3799 111.95L94.73 107.25C94.9 106.99 96.2299 107.14 98.4299 99.25C92.5699 93.11 87.18 87.12 81.05 81.25H80.7099C76.59 76.6 71.8699 72.54 67.3899 68.25H67.05C64.4688 65.2705 61.5643 62.5873 58.3899 60.25C52.8399 65.22 44.6099 77.16 41.9999 87.39C41.4299 88.62 40.4599 96.74 41.0999 100.29C41.5676 103.12 42.27 105.906 43.1999 108.62C42.5299 108.62 33.2699 108.62 33.0699 108.52C33.2099 108.03 37.8899 98.85 37.9999 98.62C37.6006 92.3246 38.6687 86.0224 41.1199 80.21C42.4399 77.63 42.9399 75.21 48.9499 66.76C48.7199 66.45 33.9999 55.4 33.0699 55.64C32.3199 54.89 42.7 39.06 44.4 38H44.7299C45.3999 38 83.24 69.77 85 71.3C86.91 68.76 87.65 65.48 87 63.3C86.6418 61.5735 86.0812 59.8953 85.33 58.3C84.5188 56.6354 83.1838 55.2829 81.5299 54.45C82.1399 53.37 94.58 36.63 94.58 36.52Z" fill="#FF5B57"/>
<path fill-rule="evenodd" clip-rule="evenodd" d="M58.3886 60.31C53.1286 64.57 47.2786 74.54 46.2786 76.07C43.3986 80.36 41.1986 89.62 41.1986 90C40.9886 91.23 40.3286 96.66 41.0686 100.33C41.5477 103.158 42.2499 105.943 43.1686 108.66C44.5986 108.66 56.9286 108.66 57.1686 108.66C56.7186 107.2 53.1686 94.6 53.0286 93.66C58.1486 93 63.2686 96 67.3886 96C70.7886 95.71 74.2886 92.94 76.3886 93.34C76.6086 93.53 93.1386 110.98 93.3886 111.34C95.6388 107.599 97.6205 103.702 99.3186 99.68C92.1986 92 68.6386 68.3 58.3886 60.31ZM61.5986 89.41C58.7786 89.24 55.0886 91.41 52.7286 92.27C52.7286 92.05 51.4086 85.98 52.0586 81.96C52.3301 80.6828 52.7812 79.4506 53.3986 78.3C54.1284 76.8045 55.2091 75.5076 56.5486 74.52C62.8286 79.42 75.0986 91.52 75.1986 91.76C70.1886 92.49 66.3786 90.15 61.5986 89.41Z" fill="#0C8EF8"/>
</svg>
