<svg width="30" height="29" viewBox="0 0 30 29" fill="none" xmlns="http://www.w3.org/2000/svg">
<path d="M20.4014 0H9.62012C4.65895 0 0.635742 4.05819 0.635742 9.0625V19.9375C0.635742 24.9418 4.65895 29 9.62012 29H20.4014C25.3625 29 29.3857 24.9418 29.3857 19.9375V9.0625C29.3857 4.05819 25.3625 0 20.4014 0ZM26.6904 19.9375C26.6904 23.4356 23.8693 26.2812 20.4014 26.2812H9.62012C6.15215 26.2812 3.33105 23.4356 3.33105 19.9375V9.0625C3.33105 5.56437 6.15215 2.71875 9.62012 2.71875H20.4014C23.8693 2.71875 26.6904 5.56437 26.6904 9.0625V19.9375Z" fill="url(#paint0_linear)"/>
<path d="M15.0107 7.24924C11.0414 7.24924 7.82324 10.4954 7.82324 14.4992C7.82324 18.503 11.0414 21.7492 15.0107 21.7492C18.98 21.7492 22.1982 18.503 22.1982 14.4992C22.1982 10.4954 18.98 7.24924 15.0107 7.24924ZM15.0107 19.0305C12.5346 19.0305 10.5186 16.9969 10.5186 14.4992C10.5186 11.9998 12.5346 9.96799 15.0107 9.96799C17.4868 9.96799 19.5029 11.9998 19.5029 14.4992C19.5029 16.9969 17.4868 19.0305 15.0107 19.0305Z" fill="url(#paint1_linear)"/>
<path d="M22.7375 7.67053C23.2665 7.67053 23.6953 7.23801 23.6953 6.70446C23.6953 6.17092 23.2665 5.7384 22.7375 5.7384C22.2086 5.7384 21.7798 6.17092 21.7798 6.70446C21.7798 7.23801 22.2086 7.67053 22.7375 7.67053Z" fill="url(#paint2_linear)"/>
<defs>
<linearGradient id="paint0_linear" x1="3.26753" y1="26.3455" x2="26.9573" y2="2.85961" gradientUnits="userSpaceOnUse">
<stop stop-color="#FFC107"/>
<stop offset="0.507" stop-color="#F44336"/>
<stop offset="0.99" stop-color="#9C27B0"/>
</linearGradient>
<linearGradient id="paint1_linear" x1="9.92855" y1="19.6256" x2="20.1809" y2="9.46162" gradientUnits="userSpaceOnUse">
<stop stop-color="#FFC107"/>
<stop offset="0.507" stop-color="#F44336"/>
<stop offset="0.99" stop-color="#9C27B0"/>
</linearGradient>
<linearGradient id="paint2_linear" x1="22.0604" y1="7.38769" x2="23.4264" y2="6.03325" gradientUnits="userSpaceOnUse">
<stop stop-color="#FFC107"/>
<stop offset="0.507" stop-color="#F44336"/>
<stop offset="0.99" stop-color="#9C27B0"/>
</linearGradient>
</defs>
</svg>
